<svg xmlns="http://www.w3.org/2000/svg" width="1500" height="980" viewBox="0 0 1500 980">
  <defs>
    <marker id="arrow" markerWidth="10" markerHeight="10" refX="8" refY="5" orient="auto"><path d="M0 0 L10 5 L0 10 Z" fill="#2563eb"/></marker>
    <style>
      text{font-family:Arial,Helvetica,sans-serif;fill:#0f172a}.title{font-size:36px;font-weight:700}.sub{font-size:18px;font-style:italic;fill:#475569}.pt{font-size:21px;font-weight:700}.ct{font-size:13px;font-weight:700}.cs{font-size:11px;fill:#475569}.num{font-size:22px;font-weight:700;fill:#fff}.box{fill:#fff;stroke-width:1.4}.arr{stroke:#2563eb;stroke-width:3;marker-end:url(#arrow)}
    </style>
  </defs>
  <rect width="1500" height="980" fill="#fff"/>
  <text x="750" y="56" text-anchor="middle" class="title">VGGT for 4K4D / DNA-Rendering Human-Scene Evidence</text>
  <text x="750" y="88" text-anchor="middle" class="sub">Case preparation, full-scene evidence generation, and advisor-facing report packaging</text>

  <g transform="translate(30 125)">
    <rect width="260" height="590" rx="18" fill="#eff6ff" stroke="#2563eb" stroke-width="1.8"/>
    <circle cx="36" cy="34" r="22" fill="#2563eb"/><text x="36" y="42" text-anchor="middle" class="num">1</text>
    <text x="78" y="35" class="pt" fill="#2563eb">4K4D / DNA</text><text x="78" y="58" class="pt" fill="#2563eb">Rendering Case</text>
    <g transform="translate(18 86)"><rect width="224" height="78" rx="12" class="box" stroke="#2563eb"/><rect x="18" y="24" width="44" height="28" rx="5" fill="#2563eb"/><text x="84" y="43" class="ct">Multi-view RGB</text></g>
    <g transform="translate(18 180)"><rect width="224" height="78" rx="12" class="box" stroke="#2563eb"/><line x1="18" y1="39" x2="62" y2="39" stroke="#2563eb" stroke-width="4"/><circle cx="30" cy="39" r="6" fill="#fff" stroke="#2563eb" stroke-width="3"/><text x="84" y="43" class="ct">Camera calibration</text></g>
    <g transform="translate(18 274)"><rect width="224" height="78" rx="12" class="box" stroke="#2563eb"/><circle cx="38" cy="39" r="14" fill="none" stroke="#2563eb" stroke-width="3"/><text x="84" y="34" class="ct">Human / foreground</text><text x="84" y="53" class="ct">masks</text></g>
    <g transform="translate(18 368)"><rect width="224" height="86" rx="12" class="box" stroke="#2563eb"/><circle cx="38" cy="42" r="14" fill="none" stroke="#2563eb" stroke-width="3"/><text x="84" y="34" class="ct">SMPL-X or</text><text x="84" y="53" class="ct">body-prior notes</text></g>
    <g transform="translate(18 472)"><rect width="224" height="90" rx="12" class="box" stroke="#2563eb"/><circle cx="22" cy="34" r="3" fill="#2563eb"/><circle cx="42" cy="50" r="3" fill="#06b6d4"/><circle cx="60" cy="34" r="3" fill="#f97316"/><text x="84" y="31" class="ct">Scene context and</text><text x="84" y="50" class="ct">environment points</text></g>
  </g>

  <g transform="translate(320 125)">
    <rect width="260" height="590" rx="18" fill="#f0fdfa" stroke="#0f766e" stroke-width="1.8"/>
    <circle cx="36" cy="34" r="22" fill="#0f766e"/><text x="36" y="42" text-anchor="middle" class="num">2</text>
    <text x="78" y="35" class="pt" fill="#0f766e">Case</text><text x="78" y="58" class="pt" fill="#0f766e">Preparation</text>
    <g transform="translate(18 100)"><rect width="224" height="86" rx="12" class="box" stroke="#0f766e"/><path d="M22 18 h34 l14 14 v44 h-48z" fill="none" stroke="#0f766e" stroke-width="3"/><text x="84" y="43" class="ct">Source audit</text></g>
    <g transform="translate(18 210)"><rect width="224" height="96" rx="12" class="box" stroke="#0f766e"/><rect x="18" y="26" width="44" height="28" rx="5" fill="#0f766e"/><text x="84" y="31" class="ct">Build prior_maps</text><text x="84" y="50" class="ct">and prior targets</text></g>
    <g transform="translate(18 330)"><rect width="224" height="96" rx="12" class="box" stroke="#0f766e"/><rect x="18" y="26" width="44" height="28" rx="5" fill="#0f766e"/><text x="84" y="31" class="ct">Build VGGT</text><text x="84" y="50" class="ct">baseline input</text></g>
    <g transform="translate(18 450)"><rect width="224" height="96" rx="12" class="box" stroke="#0f766e"/><path d="M22 18 h34 l14 14 v44 h-48z" fill="none" stroke="#0f766e" stroke-width="3"/><text x="84" y="31" class="ct">Write source</text><text x="84" y="50" class="ct">manifest</text></g>
  </g>

  <g transform="translate(610 125)">
    <rect width="260" height="590" rx="18" fill="#ecfeff" stroke="#0891b2" stroke-width="1.8"/>
    <circle cx="36" cy="34" r="22" fill="#0891b2"/><text x="36" y="42" text-anchor="middle" class="num">3</text>
    <text x="78" y="35" class="pt" fill="#0891b2">Model and</text><text x="78" y="58" class="pt" fill="#0891b2">Reference Routes</text>
    <g transform="translate(18 86)"><rect width="224" height="78" rx="12" class="box" stroke="#0891b2"/><rect x="18" y="24" width="44" height="28" rx="5" fill="#0891b2"/><text x="84" y="34" class="ct">Vanilla VGGT</text><text x="84" y="53" class="ct">baseline</text></g>
    <g transform="translate(18 180)"><rect width="224" height="78" rx="12" class="box" stroke="#0891b2"/><circle cx="38" cy="39" r="14" fill="none" stroke="#0891b2" stroke-width="3"/><text x="84" y="34" class="ct">VGGT-SMPL-X</text><text x="84" y="53" class="ct">student adapter</text></g>
    <g transform="translate(18 274)"><rect width="224" height="96" rx="12" class="box" stroke="#0891b2"/><path d="M22 18 h34 l14 14 v44 h-48z" fill="none" stroke="#0891b2" stroke-width="3"/><text x="84" y="31" class="ct">Dense teacher or</text><text x="84" y="50" class="ct">raw-depth fusion</text><text x="84" y="70" class="cs">reference only</text></g>
    <g transform="translate(18 388)"><rect width="224" height="90" rx="12" class="box" stroke="#0891b2"/><circle cx="38" cy="42" r="14" fill="none" stroke="#0891b2" stroke-width="3"/><text x="84" y="31" class="ct">SMPL-X-only</text><text x="84" y="50" class="ct">rendering</text><text x="84" y="70" class="cs">diagnostic only</text></g>
    <g transform="translate(18 496)"><rect width="224" height="62" rx="12" class="box" stroke="#0891b2"/><line x1="18" y1="31" x2="62" y2="31" stroke="#0891b2" stroke-width="4"/><circle cx="30" cy="31" r="6" fill="#fff" stroke="#0891b2" stroke-width="3"/><text x="84" y="36" class="ct">Counterfactual controls</text></g>
  </g>

  <g transform="translate(900 125)">
    <rect width="260" height="590" rx="18" fill="#f5f3ff" stroke="#7c3aed" stroke-width="1.8"/>
    <circle cx="36" cy="34" r="22" fill="#7c3aed"/><text x="36" y="42" text-anchor="middle" class="num">4</text>
    <text x="78" y="35" class="pt" fill="#7c3aed">Evidence</text><text x="78" y="58" class="pt" fill="#7c3aed">Generation</text>
    <g transform="translate(18 100)"><rect width="224" height="92" rx="12" class="box" stroke="#7c3aed"/><circle cx="22" cy="34" r="3" fill="#2563eb"/><circle cx="42" cy="50" r="3" fill="#06b6d4"/><circle cx="60" cy="34" r="3" fill="#f97316"/><text x="84" y="31" class="ct">Merge human region</text><text x="84" y="50" class="ct">with scene context</text></g>
    <g transform="translate(18 215)"><rect width="224" height="92" rx="12" class="box" stroke="#7c3aed"/><rect x="18" y="28" width="44" height="28" rx="5" fill="#7c3aed"/><text x="84" y="31" class="ct">Human-main</text><text x="84" y="50" class="ct">same-view renderer</text></g>
    <g transform="translate(18 330)"><rect width="224" height="92" rx="12" class="box" stroke="#7c3aed"/><line x1="18" y1="42" x2="62" y2="42" stroke="#7c3aed" stroke-width="4"/><circle cx="30" cy="42" r="6" fill="#fff" stroke="#7c3aed" stroke-width="3"/><text x="84" y="31" class="ct">Baseline vs adapter</text><text x="84" y="50" class="ct">vs controls</text></g>
    <g transform="translate(18 445)"><rect width="224" height="100" rx="12" class="box" stroke="#7c3aed"/><path d="M22 18 h34 l14 14 v44 h-48z" fill="none" stroke="#7c3aed" stroke-width="3"/><text x="84" y="31" class="ct">Advisor-style report</text><text x="84" y="50" class="ct">and upload-safe bundle</text><text x="84" y="70" class="cs">final evidence delivery</text></g>
  </g>

  <g transform="translate(1190 125)">
    <rect width="260" height="590" rx="18" fill="#ecfdf5" stroke="#047857" stroke-width="1.8"/>
    <circle cx="36" cy="34" r="22" fill="#047857"/><text x="36" y="42" text-anchor="middle" class="num">5</text>
    <text x="78" y="35" class="pt" fill="#047857">Next</text><text x="78" y="58" class="pt" fill="#047857">Route</text>
    <g transform="translate(18 86)"><rect width="224" height="78" rx="12" class="box" stroke="#047857"/><circle cx="38" cy="39" r="14" fill="none" stroke="#047857" stroke-width="3"/><text x="84" y="34" class="ct">Canonical</text><text x="84" y="53" class="ct">SMPL-X surface</text></g>
    <g transform="translate(18 180)"><rect width="224" height="78" rx="12" class="box" stroke="#047857"/><rect x="18" y="24" width="44" height="28" rx="5" fill="#047857"/><text x="84" y="34" class="ct">Body-part anchored</text><text x="84" y="53" class="ct">surfels</text></g>
    <g transform="translate(18 274)"><rect width="224" height="78" rx="12" class="box" stroke="#047857"/><rect x="18" y="24" width="44" height="28" rx="5" fill="#047857"/><text x="84" y="34" class="ct">VGGT / RGB</text><text x="84" y="53" class="ct">feature sampling</text></g>
    <g transform="translate(18 368)"><rect width="224" height="86" rx="12" class="box" stroke="#047857"/><line x1="18" y1="42" x2="62" y2="42" stroke="#047857" stroke-width="4"/><circle cx="30" cy="42" r="6" fill="#fff" stroke="#047857" stroke-width="3"/><text x="84" y="34" class="ct">Visibility and</text><text x="84" y="53" class="ct">confidence prediction</text></g>
    <g transform="translate(18 472)"><rect width="224" height="90" rx="12" class="box" stroke="#047857"/><circle cx="22" cy="34" r="3" fill="#2563eb"/><circle cx="42" cy="50" r="3" fill="#06b6d4"/><circle cx="60" cy="34" r="3" fill="#f97316"/><text x="84" y="31" class="ct">Pose into world</text><text x="84" y="50" class="ct">and merge into scene</text></g>
  </g>

  <line x1="292" y1="420" x2="318" y2="420" class="arr"/><line x1="582" y1="420" x2="608" y2="420" class="arr"/><line x1="872" y1="420" x2="898" y2="420" class="arr"/><line x1="1162" y1="420" x2="1188" y2="420" class="arr"/>

  <rect x="50" y="755" width="1400" height="150" rx="18" fill="#f8fbff" stroke="#60a5fa" stroke-width="1.4"/>
  <text x="750" y="790" text-anchor="middle" class="pt" fill="#2563eb">Key Notes</text>
  <text x="90" y="825" class="ct">• The main figure must be a human-main full-scene RGB point cloud.</text>
  <text x="90" y="850" class="ct">• Baseline, adapter, and controls should use the same view and bounds.</text>
  <text x="90" y="875" class="ct">• If the visual gate fails, return to representation redesign rather than over-claim success.</text>
</svg>
